<mxfile host="app.diagrams.net" modified="2024-05-06T12:49:44.308Z" agent="Mozilla/5.0 (Windows NT 10.0; Win64; x64) AppleWebKit/537.36 (KHTML, like Gecko) Chrome/124.0.0.0 Safari/537.36 Edg/124.0.0.0" version="24.3.1" etag="GroU7izZKQjo6_gF-p65" type="github">
  <diagram name="第 1 页" id="tCy6tbpI1F8ImvEWYEeN">
    <mxGraphModel>
      <root>
        <mxCell id="0" />
        <mxCell id="1" parent="0" />
      </root>
    </mxGraphModel>
  </diagram>
</mxfile>
